# xmcd CD database file
#
# Track frame offsets:
#	150
#	26125
#	52660
#	73785
#	100807
#	124182
#	147730
#	168592
#	189160
#
# Disc length: 2772 seconds
#
# Revision: 2
# Processed by: cddbd v1.5.2PL0 Copyright (c) Steve Scherf et al.
# Submitted via: CDex 1.70beta2
#
DISCID=7e0ad209
DTITLE=강은일 - Ancient Futures Vol. 1
DYEAR=2003
DGENRE=New Age
TTITLE0=초수대엽 Chosudaeyeop
TTITLE1=비에 젖은 해금 A Wet Haegum With Rain
TTITLE2=웽이자랑 Wongijarang (Cheju Lullaby)
TTITLE3=헤이 야 Hey Ya!
TTITLE4=오래된 미래 Ancient Futures
TTITLE5=Fade Out
TTITLE6=비상 Soaring
TTITLE7=낡은 마루 Old Floor
TTITLE8=라다끄의 여인 Ladakh's Women
EXTD=YEAR: 2003
EXTT0=
EXTT1=
EXTT2=
EXTT3=
EXTT4=
EXTT5=
EXTT6=
EXTT7=
EXTT8=
PLAYORDER=
